<svg width="50" height="50" viewBox="0 0 50 50" fill="none" xmlns="http://www.w3.org/2000/svg">
<path fill-rule="evenodd" clip-rule="evenodd" d="M49.21 0.234009C49.4514 0.373993 49.6507 0.569467 49.789 0.801899C49.9272 1.03433 49.9999 1.29602 50 1.56214V48.4375C50 48.8519 49.8244 49.2493 49.5118 49.5424C49.1993 49.8354 48.7754 50 48.3333 50H38.3333C37.8913 50 37.4674 49.8354 37.1548 49.5424C36.8423 49.2493 36.6667 48.8519 36.6667 48.4375V43.75H33.3333V48.4375C33.3333 48.8519 33.1577 49.2493 32.8452 49.5424C32.5326 49.8354 32.1087 50 31.6667 50H1.66667C1.22464 50 0.800716 49.8354 0.488155 49.5424C0.175595 49.2493 0 48.8519 0 48.4375V31.2499C0.000265489 30.9221 0.110494 30.6026 0.315083 30.3368C0.519673 30.071 0.80826 29.8722 1.14 29.7686L20 23.8748V14.0622C20 13.7723 20.0861 13.4881 20.2485 13.2414C20.411 12.9947 20.6435 12.7952 20.92 12.6653L47.5867 0.165259C47.841 0.0459012 48.1237 -0.010442 48.4079 0.00159214C48.692 0.0136262 48.9682 0.0936371 49.21 0.234009ZM20 27.1686L3.33333 32.3749V46.875H20V27.1686ZM23.3333 46.875H30V42.1874C30 41.773 30.1756 41.3756 30.4882 41.0826C30.8007 40.7896 31.2246 40.6249 31.6667 40.6249H38.3333C38.7754 40.6249 39.1993 40.7896 39.5118 41.0826C39.8244 41.3756 40 41.773 40 42.1874V46.875H46.6667V4.09029L23.3333 15.0279V46.875Z" fill="#EF6400"/>
</svg>
