<svg width="26" height="44" viewBox="0 0 26 44" fill="none" xmlns="http://www.w3.org/2000/svg">
<path fill-rule="evenodd" clip-rule="evenodd" d="M13 3.12391C11.7689 3.12391 10.5498 3.36641 9.41234 3.83755C8.27492 4.3087 7.24142 4.99928 6.37088 5.86984C5.50033 6.74041 4.80977 7.77393 4.33863 8.91138C3.86749 10.0488 3.625 11.2679 3.625 12.4991C3.625 13.7303 3.86749 14.9494 4.33863 16.0869C4.80977 17.2243 5.50033 18.2578 6.37088 19.1284C7.24142 19.999 8.27492 20.6895 9.41234 21.1607C10.5498 21.6318 11.7689 21.8743 13 21.8743C15.4864 21.8743 17.871 20.8866 19.6291 19.1284C21.3873 17.3702 22.375 14.9856 22.375 12.4991C22.375 10.0127 21.3873 7.62804 19.6291 5.86984C17.871 4.11165 15.4864 3.12391 13 3.12391ZM0.500002 12.4991C0.500227 10.0935 1.19455 7.73908 2.49967 5.71832C3.80479 3.69755 5.66525 2.0963 7.85782 1.1067C10.0504 0.117099 12.4819 -0.218812 14.8607 0.139272C17.2394 0.497356 19.4643 1.53422 21.2684 3.12546C23.0725 4.7167 24.3791 6.79471 25.0315 9.11015C25.6839 11.4256 25.6544 13.8801 24.9464 16.1792C24.2384 18.4782 22.8821 20.5242 21.0403 22.0715C19.1984 23.6188 16.9492 24.6018 14.5625 24.9025V42.1873C14.5625 42.6017 14.3979 42.9991 14.1049 43.2921C13.8118 43.5852 13.4144 43.7498 13 43.7498C12.5856 43.7498 12.1882 43.5852 11.8951 43.2921C11.6021 42.9991 11.4375 42.6017 11.4375 42.1873V24.9056C8.41552 24.5249 5.63653 23.0538 3.62255 20.7688C1.60857 18.4837 0.498195 15.5419 0.500002 12.496V12.4991Z" fill="#EF6400"/>
</svg>
