<svg width="50" height="50" viewBox="0 0 50 50" fill="none" xmlns="http://www.w3.org/2000/svg">
<path d="M0 1.78571C0 1.31211 0.175596 0.85791 0.48816 0.523024C0.800723 0.188138 1.22465 0 1.66668 0H6.66673C7.0385 0.000110041 7.39957 0.133395 7.69251 0.37866C7.98545 0.623924 8.19344 0.967085 8.28341 1.35357L9.63342 7.14286H48.3338C48.5869 7.14293 48.8368 7.2048 49.0643 7.32376C49.2918 7.44272 49.491 7.61565 49.6469 7.82943C49.8027 8.0432 49.911 8.2922 49.9636 8.55753C50.0162 8.82285 50.0117 9.09753 49.9505 9.36071L44.9504 30.7893C44.8604 31.1758 44.6525 31.5189 44.3595 31.7642C44.0666 32.0095 43.7055 32.1427 43.3337 32.1429H13.3335C12.9617 32.1427 12.6006 32.0095 12.3077 31.7642C12.0147 31.5189 11.8067 31.1758 11.7168 30.7893L5.36672 3.57143H1.66668C1.22465 3.57143 0.800723 3.38329 0.48816 3.0484C0.175596 2.71352 0 2.25932 0 1.78571ZM10.4668 10.7143L14.6335 28.5714H42.0337L46.2004 10.7143H10.4668ZM16.6668 39.2857C15.7828 39.2857 14.9349 39.662 14.3098 40.3318C13.6846 41.0015 13.3335 41.9099 13.3335 42.8571C13.3335 43.8043 13.6846 44.7127 14.3098 45.3825C14.9349 46.0523 15.7828 46.4286 16.6668 46.4286C17.5509 46.4286 18.3987 46.0523 19.0239 45.3825C19.649 44.7127 20.0002 43.8043 20.0002 42.8571C20.0002 41.9099 19.649 41.0015 19.0239 40.3318C18.3987 39.662 17.5509 39.2857 16.6668 39.2857ZM10.0001 42.8571C10.0001 40.9627 10.7025 39.1459 11.9527 37.8064C13.203 36.4668 14.8987 35.7143 16.6668 35.7143C18.4349 35.7143 20.1307 36.4668 21.3809 37.8064C22.6312 39.1459 23.3335 40.9627 23.3335 42.8571C23.3335 44.7515 22.6312 46.5684 21.3809 47.9079C20.1307 49.2474 18.4349 50 16.6668 50C14.8987 50 13.203 49.2474 11.9527 47.9079C10.7025 46.5684 10.0001 44.7515 10.0001 42.8571ZM40.0004 39.2857C39.1163 39.2857 38.2685 39.662 37.6433 40.3318C37.0182 41.0015 36.667 41.9099 36.667 42.8571C36.667 43.8043 37.0182 44.7127 37.6433 45.3825C38.2685 46.0523 39.1163 46.4286 40.0004 46.4286C40.8844 46.4286 41.7323 46.0523 42.3574 45.3825C42.9825 44.7127 43.3337 43.8043 43.3337 42.8571C43.3337 41.9099 42.9825 41.0015 42.3574 40.3318C41.7323 39.662 40.8844 39.2857 40.0004 39.2857ZM33.3336 42.8571C33.3336 40.9627 34.036 39.1459 35.2863 37.8064C36.5365 36.4668 38.2322 35.7143 40.0004 35.7143C41.7685 35.7143 43.4642 36.4668 44.7145 37.8064C45.9647 39.1459 46.6671 40.9627 46.6671 42.8571C46.6671 44.7515 45.9647 46.5684 44.7145 47.9079C43.4642 49.2474 41.7685 50 40.0004 50C38.2322 50 36.5365 49.2474 35.2863 47.9079C34.036 46.5684 33.3336 44.7515 33.3336 42.8571Z" fill="#EF6400"/>
</svg>
